HIERARCHY
ROOT Hips
{
	OFFSET 0.000000 0.000000 0.000000 
	CHANNELS 6 Xposition Yposition Zposition Zrotation Yrotation Xrotation
	JOINT LeftUpLeg
	{
		OFFSET 1.363060 -1.794630 0.839290 
		CHANNELS 3 Zrotation Yrotation Xrotation
		JOINT LeftLeg
		{
			OFFSET 2.448110 -6.726130 0.000000 
			CHANNELS 3 Zrotation Yrotation Xrotation
			JOINT LeftFoot
			{
				OFFSET 2.562200 -7.039590 0.000000 
				CHANNELS 3 Zrotation Yrotation Xrotation
				JOINT LeftToeBase
				{
					OFFSET 0.157640 -0.433110 2.322550 
					CHANNELS 3 Zrotation Yrotation Xrotation
					End Site
					{
						OFFSET 0.000000 0.000000 0.000000 
					}
				}
			}
		}
	}
	JOINT RightUpLeg
	{
		OFFSET -1.305520 -1.794630 0.839290 
		CHANNELS 3 Zrotation Yrotation Xrotation
		JOINT RightLeg
		{
			OFFSET -2.542530 -6.985550 0.000000 
			CHANNELS 3 Zrotation Yrotation Xrotation
			JOINT RightFoot
			{
				OFFSET -2.568260 -7.056230 0.000000 
				CHANNELS 3 Zrotation Yrotation Xrotation
				JOINT RightToeBase
				{
					OFFSET -0.164730 -0.452590 2.363150 
					CHANNELS 3 Zrotation Yrotation Xrotation
					End Site
					{
						OFFSET 0.000000 0.000000 0.000000 
					}
				}
			}
		}
	}
	JOINT Spine
	{
		OFFSET 0.028270 2.035590 -0.193380 
		CHANNELS 3 Zrotation Yrotation Xrotation
		JOINT Spine1
		{
			OFFSET 0.056720 2.048850 -0.042750 
			CHANNELS 3 Zrotation Yrotation Xrotation
			JOINT Neck1
			{
				OFFSET -0.054170 1.746240 0.172020 
				CHANNELS 3 Zrotation Yrotation Xrotation
				JOINT Head
				{
					OFFSET 0.104070 1.761360 -0.123970 
					CHANNELS 3 Zrotation Yrotation Xrotation
					End Site
					{
						OFFSET 0.000000 0.000000 0.000000 
					}
				}
			}
			JOINT LeftArm
			{
				OFFSET 3.362410 1.200890 -0.311210 
				CHANNELS 3 Zrotation Yrotation Xrotation
				JOINT LeftForeArm
				{
					OFFSET 4.983000 -0.000000 -0.000000 
					CHANNELS 3 Zrotation Yrotation Xrotation
					JOINT LeftHand
					{
						OFFSET 3.483560 -0.000000 -0.000000 
						CHANNELS 3 Zrotation Yrotation Xrotation
						JOINT LeftHandIndex1
						{
							OFFSET 0.715260 -0.000000 -0.000000 
							CHANNELS 3 Zrotation Yrotation Xrotation
							End Site
							{
								OFFSET 0.000000 0.000000 0.000000 
							}
						}
					}
				}
			}
			JOINT RightArm
			{
				OFFSET -3.136600 1.374050 -0.404650 
				CHANNELS 3 Zrotation Yrotation Xrotation
				JOINT RightForeArm
				{
					OFFSET -5.241900 -0.000000 -0.000000 
					CHANNELS 3 Zrotation Yrotation Xrotation
					JOINT RightHand
					{
						OFFSET -3.444170 -0.000000 -0.000000 
						CHANNELS 3 Zrotation Yrotation Xrotation
						JOINT RightHandIndex1
						{
							OFFSET -0.622530 -0.000000 -0.000000 
							CHANNELS 3 Zrotation Yrotation Xrotation
							End Site
							{
								OFFSET 0.000000 0.000000 0.000000 
							}
						}
					}
				}
			}
		}
	}
}
MOTION
Frames: 13
Frame Time: 0.041667
-6.804476 16.769609 -5.501703 171.162406 86.196250 -166.889146 -20.715761 -11.954204 -42.964571 11.131009 19.638456 62.941080 0.629998 -3.660219 -8.613454 0.336800 -3.729400 -10.316700 20.436357 26.726014 -43.012403 -6.323851 -17.030813 47.846319 -0.340977 -6.011965 -19.644246 -0.280000 -3.403100 9.403200 1.196136 -1.029015 0.984085 -2.950654 -0.268819 -6.887135 6.010800 -0.138211 -6.575654 0.406000 -0.485800 -4.665100 -80.194395 6.253566 27.346887 12.895831 -22.767383 -3.187358 -0.669245 -0.254859 -23.811003 -7.125000 0.000000 0.000000 77.780140 -5.233259 28.106526 -15.542923 26.439705 -4.156885 0.662747 -0.461292 -1.698737 7.125000 0.000000 0.000000 
-6.666054 16.757770 -5.494822 172.811558 86.231688 -165.263498 -20.488293 -12.238838 -44.283687 10.876592 19.547256 62.175712 0.650077 -3.520039 -9.281703 0.376300 -3.940000 -10.908000 20.923850 26.594939 -42.470640 -6.395751 -17.091231 48.111313 -0.433912 -5.601169 -20.060484 -0.287100 -3.446000 9.523000 1.204595 -0.972007 0.995029 -2.951178 -0.241615 -6.869263 6.002849 -0.133998 -6.555041 0.401000 -0.483100 -4.655400 -80.212419 6.265824 27.301335 12.831687 -22.697285 -3.168991 -0.676841 -0.257232 -23.800845 -7.125000 0.000000 0.000000 77.746120 -5.228070 28.076458 -15.505956 26.399516 -4.143186 0.662808 -0.460478 -1.638839 7.125000 0.000000 0.000000 
-6.527226 16.744413 -5.488953 174.552734 86.290800 -163.559885 -20.290860 -12.493333 -45.544505 10.590386 19.429804 61.299492 0.661899 -3.251933 -9.938960 0.417600 -4.147900 -11.493200 21.419490 26.447847 -41.915641 -6.466954 -17.148975 48.370538 -0.528334 -5.170460 -20.457565 -0.293200 -3.481900 9.623400 1.211257 -0.908380 1.005704 -2.956077 -0.211030 -6.856327 5.993880 -0.129846 -6.535434 0.394000 -0.480800 -4.648000 -80.226801 6.285463 27.256523 12.761499 -22.619395 -3.147632 -0.683121 -0.259755 -23.762693 -7.125000 0.000000 0.000000 77.718636 -5.224276 28.031454 -15.469252 26.359600 -4.130243 0.663262 -0.460061 -1.594500 7.125000 0.000000 0.000000 
-6.387589 16.730551 -5.483793 176.337014 86.367878 -161.826508 -20.128920 -12.716419 -46.731828 10.270599 19.283013 60.303954 0.666680 -2.888304 -10.583906 0.457500 -4.339100 -12.032700 21.922090 26.287136 -41.334140 -6.533977 -17.200776 48.611171 -0.622140 -4.734712 -20.835382 -0.299100 -3.516700 9.720800 1.216149 -0.842584 1.016572 -2.961388 -0.179086 -6.846025 5.984676 -0.123941 -6.519066 0.385500 -0.478300 -4.643200 -80.237038 6.314769 27.212171 12.690499 -22.539687 -3.124785 -0.687190 -0.261723 -23.698251 -7.125000 0.000000 0.000000 77.697193 -5.220365 27.974531 -15.434276 26.321308 -4.118049 0.663805 -0.459629 -1.570510 7.125000 0.000000 0.000000 
-6.247749 16.716891 -5.479442 178.189194 86.457190 -160.031365 -20.002051 -12.913632 -47.853221 9.916208 19.104860 59.182708 0.664159 -2.453261 -11.190680 0.498200 -4.525000 -12.558500 22.425510 26.107547 -40.734193 -6.593355 -17.243592 48.820507 -0.713408 -4.299346 -21.186166 -0.304600 -3.548300 9.809300 1.219692 -0.779442 1.026664 -2.966149 -0.148137 -6.838685 5.977999 -0.113634 -6.506953 0.377900 -0.473800 -4.641100 -80.245278 6.355243 27.165199 12.623518 -22.464171 -3.102531 -0.689550 -0.263187 -23.615598 -7.125000 0.000000 0.000000 77.678833 -5.213911 27.915395 -15.400391 26.284069 -4.106742 0.664757 -0.459252 -1.560907 7.125000 0.000000 0.000000 
-6.107100 16.704546 -5.475698 -179.823617 86.558417 -158.106721 -19.908721 -13.084974 -48.891527 9.524838 18.890791 57.923242 0.654926 -1.976021 -11.744353 0.538100 -4.700300 -13.055700 22.936072 25.903964 -40.104513 -6.640677 -17.273370 48.982399 -0.801718 -3.866510 -21.508369 -0.306100 -3.557200 9.834100 1.221879 -0.716767 1.036336 -2.971931 -0.116965 -6.833671 5.971833 -0.098957 -6.502098 0.369700 -0.467700 -4.643200 -80.249282 6.406421 27.125877 12.562103 -22.395039 -3.081612 -0.690514 -0.263892 -23.528179 -7.125000 0.000000 0.000000 77.663053 -5.204189 27.854822 -15.367824 26.247907 -4.095505 0.666115 -0.457984 -1.568774 7.125000 0.000000 0.000000 
-5.965945 16.694529 -5.472763 -177.640592 86.671220 -155.984512 -19.847890 -13.230994 -49.849046 9.095390 18.636897 56.515784 0.639554 -1.481473 -12.228886 0.576800 -4.863500 -13.519800 23.448709 25.676820 -39.448547 -6.672128 -17.286778 49.082904 -0.887850 -3.424411 -21.799055 -0.307000 -3.562100 9.847900 1.223241 -0.654972 1.045636 -2.976620 -0.085860 -6.824844 5.968678 -0.078072 -6.502414 0.363200 -0.458600 -4.647600 -80.252746 6.464927 27.093055 12.506227 -22.333053 -3.062644 -0.691182 -0.264082 -23.441111 -7.125000 0.000000 0.000000 77.647061 -5.190801 27.797748 -15.336014 26.212512 -4.084648 0.667382 -0.456954 -1.582221 7.125000 0.000000 0.000000 
-5.824285 16.687445 -5.470335 -175.203774 86.795336 -153.603772 -19.820100 -13.351501 -50.717988 8.628894 18.339557 54.956912 0.620962 -1.011998 -12.636375 0.610200 -4.999700 -13.907700 23.962159 25.423893 -38.764056 -6.685420 -17.281817 49.114080 -0.970440 -2.978135 -22.052728 -0.305800 -3.555300 9.828800 1.224269 -0.591635 1.054762 -2.977655 -0.053526 -6.812949 5.965707 -0.052146 -6.511347 0.356400 -0.447400 -4.656900 -80.256288 6.528992 27.069973 12.456799 -22.279203 -3.045889 -0.691479 -0.263511 -23.363958 -7.125000 0.000000 0.000000 77.629925 -5.172765 27.741143 -15.306623 26.179729 -4.074595 0.668013 -0.456289 -1.604970 7.125000 0.000000 0.000000 
-5.681814 16.683297 -5.468716 -172.291425 86.928566 -150.749464 -19.816676 -13.449071 -51.490702 8.130117 17.996656 53.251808 0.599762 -0.568687 -12.973580 0.637800 -5.109600 -14.221400 24.487214 25.138539 -38.043007 -6.680694 -17.257921 49.075556 -1.049020 -2.528118 -22.268081 -0.301200 -3.528700 9.754300 1.225144 -0.523463 1.064802 -2.978637 -0.017890 -6.795342 5.964738 -0.021495 -6.526660 0.350300 -0.434100 -4.669500 -80.259388 6.592141 27.056970 12.409759 -22.228962 -3.030419 -0.692447 -0.263712 -23.295790 -7.125000 0.000000 0.000000 77.612601 -5.152618 27.685508 -15.279681 26.149778 -4.065533 0.668464 -0.455965 -1.630410 7.125000 0.000000 0.000000 
-5.538737 16.681172 -5.467906 -168.845798 87.069403 -147.357242 -19.837002 -13.527908 -52.178631 7.606204 17.608642 51.415527 0.577742 -0.168038 -13.247438 0.661000 -5.199700 -14.479000 25.016078 24.820093 -37.300524 -6.660306 -17.217133 48.975999 -1.122540 -2.081531 -22.444652 -0.293800 -3.485600 9.633600 1.226074 -0.450085 1.074984 -2.978379 0.021032 -6.772965 5.963556 0.011922 -6.544720 0.343500 -0.419700 -4.683200 -80.265451 6.654587 27.049146 12.364267 -22.181096 -3.015703 -0.693819 -0.264371 -23.228676 -7.125000 0.000000 0.000000 77.592963 -5.132514 27.633087 -15.255916 26.123110 -4.057187 0.667887 -0.455923 -1.654264 7.125000 0.000000 0.000000 
-5.395153 16.679856 -5.468311 -164.627151 87.212453 -143.191926 -19.874975 -13.588681 -52.788825 7.065872 17.176864 49.467343 0.555819 0.192703 -13.470709 0.680000 -5.272700 -14.687900 25.554492 24.464843 -36.544014 -6.627779 -17.162212 48.828356 -1.189502 -1.653082 -22.585523 -0.282000 -3.415600 9.438100 1.226805 -0.369820 1.084616 -2.982951 0.064433 -6.750331 5.961615 0.046871 -6.564839 0.335300 -0.404900 -4.699000 -80.273344 6.715197 27.042588 12.316224 -22.130107 -3.000478 -0.695875 -0.265925 -23.159953 -7.125000 0.000000 0.000000 77.574712 -5.117509 27.580858 -15.237717 26.103279 -4.051140 0.667414 -0.455701 -1.674217 7.125000 0.000000 0.000000 
-5.250761 16.678642 -5.470031 -159.418658 87.359808 -138.034176 -19.926449 -13.629756 -53.325687 6.518137 16.704122 47.428343 0.535520 0.514284 -13.669789 0.695600 -5.331500 -14.856500 26.103598 24.079173 -35.777395 -6.587013 -17.096036 48.646579 -1.250607 -1.242797 -22.697592 -0.268900 -3.336000 9.215700 1.227253 -0.280054 1.093524 -2.991207 0.113638 -6.728788 5.957990 0.082045 -6.583527 0.325400 -0.390100 -4.715400 -80.286242 6.776170 27.033409 12.265794 -22.075914 -2.984308 -0.697794 -0.267642 -23.086884 -7.125000 0.000000 0.000000 77.557558 -5.109065 27.523073 -15.224825 26.089662 -4.047049 0.667424 -0.454401 -1.686623 7.125000 0.000000 0.000000 
-5.105862 16.676922 -5.472864 -153.101459 87.502100 -131.769666 -19.995544 -13.648153 -53.797898 5.971091 16.193120 45.317428 0.517155 0.798900 -13.850041 0.711500 -5.390700 -15.026300 26.662434 23.667092 -35.002320 -6.541241 -17.021047 48.442106 -1.307265 -0.850073 -22.791822 -0.257800 -3.266400 9.021300 1.227328 -0.183696 1.101732 -3.003751 0.167046 -6.708645 5.955744 0.118430 -6.596058 0.315900 -0.374700 -4.728900 -80.302774 6.837437 27.017711 12.214586 -22.020645 -2.968345 -0.700548 -0.270427 -23.006122 -7.125000 0.000000 0.000000 77.542752 -5.106870 27.464396 -15.214585 26.079523 -4.043974 0.667601 -0.452904 -1.676845 7.125000 0.000000 0.000000 
